<?xml version="1.0" encoding="UTF-8"?>
<svg width="32" height="32" viewBox="0 0 24 24" fill="none" xmlns="http://www.w3.org/2000/svg">
  <path d="M12 14L12 22M12 22L15 19M12 22L9 19" stroke="currentColor" stroke-width="2" stroke-linecap="round" stroke-linejoin="round"/>
  <path d="M15 7C15 8.65685 13.6569 10 12 10C10.3431 10 9 8.65685 9 7C9 5.34315 10.3431 4 12 4C13.6569 4 15 5.34315 15 7Z" stroke="currentColor" stroke-width="2"/>
  <path d="M5 11C5 12.1046 4.10457 13 3 13C1.89543 13 1 12.1046 1 11C1 9.89543 1.89543 9 3 9C4.10457 9 5 9.89543 5 11Z" stroke="currentColor" stroke-width="2"/>
  <path d="M23 11C23 12.1046 22.1046 13 21 13C19.8954 13 19 12.1046 19 11C19 9.89543 19.8954 9 21 9C22.1046 9 23 9.89543 23 11Z" stroke="currentColor" stroke-width="2"/>
</svg>
